<?xml version="1.0" encoding="utf-8"?>
<!-- Generator: Adobe Illustrator 23.0.1, SVG Export Plug-In . SVG Version: 6.00 Build 0)  -->
<svg version="1.1" id="Layer_1" xmlns="http://www.w3.org/2000/svg" xmlns:xlink="http://www.w3.org/1999/xlink" x="0px" y="0px"
	 viewBox="0 0 254 50" style="enable-background:new 0 0 254 50;" xml:space="preserve">
<style type="text/css">
	.st0{fill:#FF866B;}
	.st1{fill:#2BB673;}
	.st2{fill:#0047A9;}
	.st3{fill:#037FFF;}
	.st4{fill:#F05D5E;}
	.st5{enable-background:new    ;}
	.st6{fill:#FFFFFF;}
</style>
<g>
	<g>
		<polygon class="st0" points="5,28.8 1.7,29.4 1.7,10.6 5,10.6 		"/>
		<polygon class="st1" points="9.8,27.9 6.5,28.5 6.5,14.8 9.8,14.8 		"/>
		<polygon class="st2" points="14.8,27 11.5,27.6 11.5,8.8 14.8,8.8 		"/>
		<polygon class="st3" points="19.5,26.2 16.2,26.9 16.2,13.1 19.5,13.1 		"/>
		<polygon class="st4" points="21.1,38.8 0,38.8 0,31.7 21.1,28.5 		"/>
	</g>
	<g class="st5">
		<path class="st6" d="M47.3,17c2.1,0,5.9,0.9,5.9,3.7v1.9h-3.6v-0.9c0-0.9-1.3-1.3-2.3-1.3c-2.8,0-4.8,2.1-4.8,5.1
			c0,3.3,2.5,5,5.1,5c2.8,0,4.8-2.2,4.8-2.2l1.7,2.8c0,0-2.4,2.9-6.9,2.9c-5.4,0-8.8-3.8-8.8-8.5C38.4,20.9,41.7,17,47.3,17z"/>
		<path class="st6" d="M57.2,21.5c0-0.5-0.3-0.7-0.7-0.7h-1.3v-3.4h3.7c1.4,0,2.2,0.6,2.2,2v1c0,0.6-0.1,1-0.1,1h0.1
			c0.7-2.3,2.7-4.2,5.2-4.2c0.4,0,0.7,0.1,0.7,0.1v4c0,0-0.4-0.1-1-0.1c-1.7,0-3.7,1-4.4,3.4c-0.2,0.8-0.4,1.7-0.4,2.6v6.4h-4V21.5z
			"/>
		<path class="st6" d="M77.5,23.4H78v-0.1c0-2.3-0.9-3.2-3-3.2c-0.7,0-2.2,0.2-2.2,1.1V22H69v-1.7c0-3,4.3-3.4,6-3.4
			c5.4,0,7,2.8,7,6.5v6.1c0,0.4,0.3,0.7,0.7,0.7H84v3.4h-3.6c-1.5,0-2.1-0.8-2.1-1.8c0-0.4,0-0.7,0-0.7h-0.1c0,0-1.2,2.9-4.9,2.9
			c-2.9,0-5.6-1.8-5.6-5.1C67.8,23.8,74.8,23.4,77.5,23.4z M74.3,30.8c2.2,0,3.7-2.3,3.7-4.3v-0.4h-0.7c-2.1,0-5.5,0.3-5.5,2.6
			C71.9,29.8,72.7,30.8,74.3,30.8z"/>
		<path class="st6" d="M93,17c3.5,0,4.7,2,4.7,2h0.1c0,0,0-0.4,0-1v-2.9c0-0.5-0.3-0.7-0.7-0.7h-1.3V11h3.9c1.5,0,2.2,0.7,2.2,2.2
			v16.4c0,0.4,0.3,0.7,0.7,0.7h1.2v3.4H100c-1.5,0-2-0.7-2-1.7c0-0.4,0-0.6,0-0.6h-0.1c0,0-1.3,2.6-5.1,2.6c-4.4,0-7.2-3.5-7.2-8.5
			C85.6,20.3,88.7,17,93,17z M97.8,25.4c0-2.5-1.3-5-4-5c-2.2,0-4.1,1.8-4.1,5c0,3.1,1.6,5.1,4,5.1C95.9,30.6,97.8,29.1,97.8,25.4z"
			/>
		<path class="st6" d="M107,15.1c0-0.5-0.3-0.7-0.7-0.7H105V11h3.9c1.5,0,2.2,0.7,2.2,2.2v16.4c0,0.4,0.3,0.7,0.7,0.7h1.2v3.4h-3.8
			c-1.5,0-2.2-0.6-2.2-2.2V15.1z"/>
		<path class="st6" d="M123,17c4.7,0,7.2,3.4,7.2,7.7c0,0.5-0.1,1.5-0.1,1.5h-11.2c0.3,2.9,2.4,4.4,4.9,4.4c2.6,0,4.6-1.8,4.6-1.8
			l1.7,2.8c0,0-2.5,2.5-6.5,2.5c-5.4,0-8.7-3.9-8.7-8.5C114.7,20.5,118.1,17,123,17z M126.1,23.4c-0.1-1.9-1.4-3.3-3.1-3.3
			c-2.1,0-3.5,1.2-4,3.3H126.1z"/>
		<path class="st6" d="M142.6,20.6h-2v-3.2h2v-0.5c0-5.3,4.4-6,6.6-6c0.8,0,1.4,0.1,1.4,0.1v3.4c0,0-0.4-0.1-0.9-0.1
			c-1.1,0-3,0.4-3,2.7v0.3h8.6c1.5,0,2.2,0.7,2.2,2.2v10c0,0.4,0.3,0.7,0.7,0.7h1.2v3.4h-3.8c-1.5,0-2.2-0.6-2.2-2.2V21.3
			c0-0.4-0.3-0.7-0.7-0.7h-6.1v13.1h-4.1V20.6z M153.6,11h3.5v3.7h-3.5V11z"/>
		<path class="st6" d="M162.8,21.5c0-0.5-0.3-0.7-0.7-0.7h-1.3v-3.4h3.7c1.4,0,2.1,0.7,2.1,1.8v0.5c0,0.4-0.1,0.7-0.1,0.7h0.1
			c0.7-1.4,2.5-3.4,5.7-3.4c3.6,0,5.7,1.9,5.7,6.2v6.3c0,0.4,0.3,0.7,0.7,0.7h1.3v3.4h-3.9c-1.5,0-2.2-0.6-2.2-2.2V24
			c0-2-0.5-3.3-2.6-3.3c-2.2,0-3.8,1.4-4.4,3.3c-0.2,0.7-0.3,1.4-0.3,2.2v7.5h-4V21.5z"/>
		<path class="st6" d="M191.4,23.4h0.5v-0.1c0-2.3-0.9-3.2-3-3.2c-0.7,0-2.2,0.2-2.2,1.1V22H183v-1.7c0-3,4.3-3.4,6-3.4
			c5.4,0,7,2.8,7,6.5v6.1c0,0.4,0.3,0.7,0.7,0.7h1.3v3.4h-3.6c-1.5,0-2.1-0.8-2.1-1.8c0-0.4,0-0.7,0-0.7h-0.1c0,0-1.2,2.9-4.9,2.9
			c-2.9,0-5.6-1.8-5.6-5.1C181.7,23.8,188.8,23.4,191.4,23.4z M188.3,30.8c2.2,0,3.7-2.3,3.7-4.3v-0.4h-0.7c-2.1,0-5.5,0.3-5.5,2.6
			C185.8,29.8,186.6,30.8,188.3,30.8z"/>
		<path class="st6" d="M201.2,21.5c0-0.5-0.3-0.7-0.7-0.7h-1.3v-3.4h3.7c1.4,0,2.1,0.7,2.1,1.8v0.5c0,0.4-0.1,0.7-0.1,0.7h0.1
			c0.7-1.4,2.5-3.4,5.7-3.4c3.6,0,5.7,1.9,5.7,6.2v6.3c0,0.4,0.3,0.7,0.7,0.7h1.3v3.4h-3.9c-1.5,0-2.2-0.6-2.2-2.2V24
			c0-2-0.5-3.3-2.6-3.3c-2.2,0-3.8,1.4-4.4,3.3c-0.2,0.7-0.3,1.4-0.3,2.2v7.5h-4V21.5z"/>
		<path class="st6" d="M229,17c2.1,0,5.9,0.9,5.9,3.7v1.9h-3.6v-0.9c0-0.9-1.3-1.3-2.3-1.3c-2.8,0-4.8,2.1-4.8,5.1
			c0,3.3,2.5,5,5.1,5c2.8,0,4.8-2.2,4.8-2.2l1.7,2.8c0,0-2.4,2.9-6.9,2.9c-5.4,0-8.8-3.8-8.8-8.5C220.1,20.9,223.4,17,229,17z"/>
		<path class="st6" d="M245.5,17c4.7,0,7.2,3.4,7.2,7.7c0,0.5-0.1,1.5-0.1,1.5h-11.2c0.3,2.9,2.4,4.4,4.9,4.4c2.6,0,4.6-1.8,4.6-1.8
			l1.7,2.8c0,0-2.5,2.5-6.5,2.5c-5.4,0-8.7-3.9-8.7-8.5C237.3,20.5,240.6,17,245.5,17z M248.6,23.4c-0.1-1.9-1.4-3.3-3.1-3.3
			c-2.1,0-3.5,1.2-4,3.3H248.6z"/>
	</g>
</g>
</svg>
